<svg width="371" height="567" viewBox="0 0 371 567" fill="none" xmlns="http://www.w3.org/2000/svg">
<g filter="url(#filter0_d)">
<path d="M174.351 24.5818C95.9043 22.0513 59.8442 32.3005 51.3651 37.8141C51.3432 57.4302 51.2992 99.1798 51.2992 109.249C56.3076 118.423 94.1121 119.178 112.388 118.409V133.501C63.5893 132.214 33.7571 138.644 21.2643 143.313C18.4932 144.348 16.8666 146.995 16.8666 149.953V530.678C16.8666 539.114 22.7756 540.783 25.7301 540.563C124.25 540.585 322.832 540.616 329 540.563C335.169 540.511 336.491 534.654 336.381 531.733C336.57 415.297 336.94 183.636 336.972 148.752C336.974 146.421 335.987 144.312 333.901 143.271C317.752 135.21 266.912 133.197 241.815 133.237V118.344C288.736 120.137 302.047 112.94 302.838 109.118C303.058 109.162 303.365 95.0947 302.838 38.4737C291.345 26.2427 212.397 24.0107 174.351 24.5818Z" fill="#EDECEA"/>
</g>
<defs>
<filter id="filter0_d" x="0.866638" y="0.186996" width="370.105" height="566.405" filterUnits="userSpaceOnUse" color-interpolation-filters="sRGB">
<feFlood flood-opacity="0" result="BackgroundImageFix"/>
<feColorMatrix in="SourceAlpha" type="matrix" values="0 0 0 0 0 0 0 0 0 0 0 0 0 0 0 0 0 0 127 0"/>
<feOffset dx="9" dy="1"/>
<feGaussianBlur stdDeviation="12.5"/>
<feColorMatrix type="matrix" values="0 0 0 0 0.698039 0 0 0 0 0.65098 0 0 0 0 0.588235 0 0 0 0.85 0"/>
<feBlend mode="normal" in2="BackgroundImageFix" result="effect1_dropShadow"/>
<feBlend mode="normal" in="SourceGraphic" in2="effect1_dropShadow" result="shape"/>
</filter>
</defs>
</svg>
