<svg width="371" height="567" viewBox="0 0 371 567" fill="none" xmlns="http://www.w3.org/2000/svg">
<g filter="url(#filter0_d)">
<path d="M173.947 24.9591C95.4997 22.4285 59.4396 32.6777 50.9605 38.1913C50.9386 57.8075 50.8946 99.5571 50.8946 109.627C55.903 118.8 93.7075 119.555 111.984 118.787V133.878C63.1847 132.592 33.3525 139.021 20.8597 143.69C18.0886 144.726 16.462 147.372 16.462 150.33V531.056C16.462 539.491 22.371 541.16 25.3255 540.941C123.846 540.963 322.428 540.993 328.596 540.941C334.764 540.888 336.086 535.032 335.977 532.11C336.166 415.674 336.535 184.013 336.567 149.13C336.57 146.799 335.582 144.689 333.496 143.648C317.347 135.587 266.507 133.574 241.411 133.615V118.721C288.331 120.514 301.643 113.318 302.434 109.495C302.653 109.539 302.961 95.4719 302.434 38.8509C290.941 26.62 211.993 24.3879 173.947 24.9591Z" fill="#EDECEA"/>
</g>
<defs>
<filter id="filter0_d" x="0.462036" y="0.56427" width="370.105" height="566.405" filterUnits="userSpaceOnUse" color-interpolation-filters="sRGB">
<feFlood flood-opacity="0" result="BackgroundImageFix"/>
<feColorMatrix in="SourceAlpha" type="matrix" values="0 0 0 0 0 0 0 0 0 0 0 0 0 0 0 0 0 0 127 0"/>
<feOffset dx="9" dy="1"/>
<feGaussianBlur stdDeviation="12.5"/>
<feColorMatrix type="matrix" values="0 0 0 0 0.698039 0 0 0 0 0.65098 0 0 0 0 0.588235 0 0 0 0.85 0"/>
<feBlend mode="normal" in2="BackgroundImageFix" result="effect1_dropShadow"/>
<feBlend mode="normal" in="SourceGraphic" in2="effect1_dropShadow" result="shape"/>
</filter>
</defs>
</svg>
