<svg width="56" height="56" viewBox="0 0 56 56" fill="none" xmlns="http://www.w3.org/2000/svg">
<mask id="mask0" mask-type="alpha" maskUnits="userSpaceOnUse" x="0" y="0" width="56" height="56">
<circle cx="28" cy="27.521" r="27.1782" fill="white" stroke="#D9D9D9" stroke-width="0.643618"/>
</mask>
<g mask="url(#mask0)">
<path d="M25.4265 39.3194L23.5909 70.2397C23.5928 70.8269 23.7102 71.4079 23.9366 71.9497C24.163 72.4915 24.4939 72.9834 24.9104 73.3973C25.3269 73.8112 25.8208 74.139 26.364 74.3621C26.9072 74.5851 27.489 74.6989 28.0761 74.6971C28.6633 74.6953 29.2444 74.5778 29.7862 74.3514C30.328 74.1251 30.8199 73.7942 31.2338 73.3777C32.0697 72.5365 32.5373 71.3978 32.5336 70.2119L30.4956 39.221" stroke="#231F20" stroke-width="2" stroke-linecap="round" stroke-linejoin="round"/>
<path d="M30.7015 15.6008C30.9086 15.5404 31.1288 15.5416 31.3352 15.6042C31.5416 15.6668 31.7254 15.7881 31.864 15.9533C32.0027 16.1185 32.0902 16.3205 32.116 16.5347C32.1418 16.7488 32.1047 16.9659 32.0093 17.1593C29.4828 22.2788 34.7676 25.6492 35.7391 29.1024C36.2875 31.1085 36.0241 33.2498 35.0057 35.0631C33.9873 36.8764 32.296 38.2159 30.2975 38.7916C17.6435 42.3481 16.3715 19.7751 30.7015 15.6008V15.6008Z" stroke="#231F20" stroke-width="2.22249" stroke-linecap="round" stroke-linejoin="round"/>
</g>
</svg>
