<svg width="56" height="56" viewBox="0 0 56 56" fill="none" xmlns="http://www.w3.org/2000/svg">
<mask id="mask0" mask-type="alpha" maskUnits="userSpaceOnUse" x="0" y="0" width="56" height="56">
<circle cx="28" cy="27.87" r="27.1782" fill="white" stroke="#D9D9D9" stroke-width="0.643618"/>
</mask>
<g mask="url(#mask0)">
<path d="M25.4269 29.6684L23.5913 60.5887C23.5931 61.1759 23.7106 61.7569 23.937 62.2987C24.1634 62.8405 24.4943 63.3324 24.9107 63.7463C25.3272 64.1602 25.8212 64.488 26.3644 64.7111C26.9075 64.9341 27.4893 65.0479 28.0765 65.0461C28.6637 65.0443 29.2448 64.9268 29.7866 64.7004C30.3283 64.4741 30.8202 64.1432 31.2342 63.7267C32.0701 62.8855 32.5376 61.7468 32.534 60.5609L30.496 29.57" stroke="#231F20" stroke-width="2" stroke-linecap="round" stroke-linejoin="round"/>
<path d="M29.3569 15.9905C29.4768 15.9555 29.6044 15.9562 29.7239 15.9925C29.8435 16.0287 29.95 16.099 30.0303 16.1947C30.1106 16.2904 30.1613 16.4074 30.1763 16.5315C30.1912 16.6556 30.1697 16.7813 30.1144 16.8933C28.6508 19.859 31.7123 21.8115 32.2751 23.8119C32.5928 24.974 32.4402 26.2145 31.8502 27.2649C31.2603 28.3154 30.2805 29.0913 29.1228 29.4248C21.7924 31.4851 21.0556 18.4087 29.3569 15.9905V15.9905Z" stroke="#231F20" stroke-width="2" stroke-linecap="round" stroke-linejoin="round"/>
</g>
</svg>
