<svg width="56" height="56" viewBox="0 0 56 56" fill="none" xmlns="http://www.w3.org/2000/svg">
<mask id="mask0" mask-type="alpha" maskUnits="userSpaceOnUse" x="0" y="0" width="56" height="56">
<circle cx="28" cy="27.521" r="27.1782" fill="white" stroke="#D9D9D9" stroke-width="0.643618"/>
</mask>
<g mask="url(#mask0)">
<path d="M25.4269 34.3194L23.5913 65.2397C23.5931 65.8269 23.7106 66.4079 23.937 66.9497C24.1634 67.4915 24.4943 67.9834 24.9107 68.3973C25.3272 68.8112 25.8212 69.139 26.3644 69.3621C26.9075 69.5851 27.4893 69.6989 28.0765 69.6971C28.6637 69.6953 29.2448 69.5778 29.7866 69.3514C30.3283 69.1251 30.8202 68.7942 31.2342 68.3777C32.0701 67.5365 32.5376 66.3978 32.534 65.2119L30.496 34.221" stroke="#231F20" stroke-width="2" stroke-linecap="round" stroke-linejoin="round"/>
<path d="M30.0777 15.8181C30.2444 15.7695 30.4216 15.7704 30.5877 15.8208C30.7538 15.8712 30.9016 15.9688 31.0132 16.1018C31.1248 16.2347 31.1953 16.3973 31.216 16.5696C31.2368 16.742 31.207 16.9166 31.1302 17.0723C29.0969 21.1922 33.3499 23.9045 34.1317 26.6834C34.573 28.2978 34.361 30.0211 33.5415 31.4803C32.722 32.9395 31.3608 34.0174 29.7526 34.4808C19.5693 37.3428 18.5457 19.1774 30.0777 15.8181V15.8181Z" stroke="#231F20" stroke-width="2" stroke-linecap="round" stroke-linejoin="round"/>
</g>
</svg>
